<svg xmlns="http://www.w3.org/2000/svg" viewBox="0 0 1800 420" role="img" aria-label="Illustrated green city park">
  <defs>
    <linearGradient id="sky" x1="0" x2="0" y1="0" y2="1">
      <stop offset="0" stop-color="#dff2fb"/>
      <stop offset="0.58" stop-color="#edf8f0"/>
      <stop offset="1" stop-color="#d7efd7"/>
    </linearGradient>
    <linearGradient id="grass" x1="0" x2="0" y1="0" y2="1">
      <stop offset="0" stop-color="#9ed18b"/>
      <stop offset="1" stop-color="#4f9a5a"/>
    </linearGradient>
    <linearGradient id="lake" x1="0" x2="1" y1="0" y2="0">
      <stop offset="0" stop-color="#b9dfd9"/>
      <stop offset="0.55" stop-color="#d9efe8"/>
      <stop offset="1" stop-color="#a9d7c8"/>
    </linearGradient>
    <linearGradient id="leaf" x1="0" x2="1" y1="0" y2="1">
      <stop offset="0" stop-color="#7dbf64"/>
      <stop offset="1" stop-color="#2f7d40"/>
    </linearGradient>
    <filter id="softShadow" x="-20%" y="-20%" width="140%" height="140%">
      <feDropShadow dx="0" dy="10" stdDeviation="12" flood-color="#1f5f31" flood-opacity="0.16"/>
    </filter>
  </defs>

  <rect width="1800" height="420" fill="url(#sky)"/>
  <path d="M0 190 C190 145 310 148 455 176 C610 206 714 150 875 145 C1015 140 1114 190 1250 174 C1420 154 1565 92 1800 124 L1800 420 L0 420 Z" fill="#d7eadf"/>
  <path d="M0 232 C210 160 314 196 472 214 C651 236 752 175 924 181 C1092 187 1182 236 1370 205 C1535 178 1656 140 1800 164 L1800 420 L0 420 Z" fill="#c7e5c9"/>

  <g opacity="0.72">
    <path d="M574 162 L665 74 L740 162 Z" fill="#d9e5ef"/>
    <path d="M672 160 L786 46 L906 160 Z" fill="#c9d8e2"/>
    <path d="M813 160 L912 88 L1002 160 Z" fill="#dce9ee"/>
    <path d="M665 74 L704 162 L574 162 Z" fill="#eef6f9"/>
    <path d="M786 46 L829 160 L672 160 Z" fill="#eef6f9"/>
  </g>

  <g fill="#cfe4d9" opacity="0.95">
    <rect x="1212" y="110" width="38" height="128" rx="6"/>
    <rect x="1260" y="78" width="50" height="160" rx="7"/>
    <rect x="1322" y="126" width="42" height="112" rx="6"/>
    <rect x="1378" y="96" width="58" height="142" rx="8"/>
    <rect x="1450" y="132" width="44" height="106" rx="6"/>
    <rect x="1506" y="90" width="52" height="148" rx="7"/>
    <rect x="1572" y="118" width="60" height="120" rx="8"/>
  </g>
  <g fill="#edf6ef" opacity="0.78">
    <rect x="1224" y="128" width="7" height="16" rx="2"/>
    <rect x="1240" y="128" width="7" height="16" rx="2"/>
    <rect x="1274" y="98" width="8" height="18" rx="2"/>
    <rect x="1292" y="98" width="8" height="18" rx="2"/>
    <rect x="1394" y="116" width="8" height="18" rx="2"/>
    <rect x="1414" y="116" width="8" height="18" rx="2"/>
    <rect x="1522" y="110" width="8" height="18" rx="2"/>
    <rect x="1540" y="110" width="8" height="18" rx="2"/>
    <rect x="1592" y="138" width="9" height="16" rx="2"/>
    <rect x="1614" y="138" width="9" height="16" rx="2"/>
  </g>

  <path d="M0 252 C215 226 432 232 640 252 C835 270 1030 274 1216 252 C1406 230 1602 208 1800 224 L1800 420 L0 420 Z" fill="url(#grass)"/>
  <path d="M198 282 C398 258 560 278 730 292 C905 306 1094 300 1290 282 C1434 269 1595 260 1800 274 L1800 420 L198 420 Z" fill="#76b765" opacity="0.72"/>
  <path d="M408 302 C584 276 778 274 954 294 C1118 312 1284 312 1486 292 C1592 282 1690 278 1800 286 L1800 348 C1614 340 1460 346 1292 360 C1100 376 936 364 760 344 C594 325 492 332 360 350 C270 362 132 362 0 342 L0 310 C128 326 280 320 408 302 Z" fill="url(#lake)" opacity="0.9"/>

  <g filter="url(#softShadow)">
    <g transform="translate(118 210)">
      <rect x="33" y="48" width="12" height="72" rx="6" fill="#5f7f3f"/>
      <circle cx="39" cy="42" r="32" fill="url(#leaf)"/>
      <circle cx="14" cy="56" r="23" fill="#68a64e"/>
      <circle cx="64" cy="61" r="25" fill="#3f8b45"/>
    </g>
    <g transform="translate(305 202) scale(1.1)">
      <rect x="34" y="56" width="12" height="78" rx="6" fill="#5f7f3f"/>
      <circle cx="39" cy="44" r="34" fill="#5da24b"/>
      <circle cx="13" cy="62" r="24" fill="#7bbf5f"/>
      <circle cx="68" cy="66" r="28" fill="#338045"/>
    </g>
    <g transform="translate(1020 200) scale(1.22)">
      <rect x="32" y="58" width="12" height="82" rx="6" fill="#5f7f3f"/>
      <circle cx="38" cy="44" r="35" fill="#65aa52"/>
      <circle cx="10" cy="66" r="26" fill="#82c463"/>
      <circle cx="70" cy="66" r="29" fill="#397f43"/>
    </g>
    <g transform="translate(1660 180) scale(1.35)">
      <rect x="35" y="64" width="14" height="92" rx="7" fill="#5f7f3f"/>
      <circle cx="42" cy="48" r="42" fill="#5aa04c"/>
      <circle cx="8" cy="74" r="29" fill="#7fc15e"/>
      <circle cx="80" cy="74" r="35" fill="#347d41"/>
    </g>
  </g>

  <g opacity="0.78">
    <path d="M1160 318 C1202 300 1242 300 1280 320 C1228 330 1190 330 1160 318 Z" fill="#437f43"/>
    <path d="M42 332 C100 304 160 304 222 334 C150 348 92 348 42 332 Z" fill="#4c9148"/>
    <path d="M1460 314 C1516 286 1588 288 1646 318 C1576 330 1510 330 1460 314 Z" fill="#3f8844"/>
  </g>

  <g stroke="#ecf7ed" stroke-linecap="round" stroke-width="7" opacity="0.7">
    <path d="M82 380 C320 348 488 354 690 380"/>
    <path d="M1080 382 C1260 350 1412 354 1700 382"/>
  </g>
</svg>
