<svg xmlns="http://www.w3.org/2000/svg" viewBox="0 0 1400 360" role="img" aria-label="Illustrated green landscape">
  <defs>
    <linearGradient id="sky" x1="0" x2="0" y1="0" y2="1">
      <stop offset="0" stop-color="#dff3fb"/>
      <stop offset="1" stop-color="#edf8ec"/>
    </linearGradient>
    <linearGradient id="hillA" x1="0" x2="1" y1="0" y2="1">
      <stop offset="0" stop-color="#cfe9bf"/>
      <stop offset="1" stop-color="#6fb15b"/>
    </linearGradient>
    <linearGradient id="hillB" x1="0" x2="1" y1="0" y2="1">
      <stop offset="0" stop-color="#a9d891"/>
      <stop offset="1" stop-color="#3f9148"/>
    </linearGradient>
    <filter id="shadow" x="-20%" y="-20%" width="140%" height="140%">
      <feDropShadow dx="0" dy="10" stdDeviation="10" flood-color="#1d5f34" flood-opacity="0.16"/>
    </filter>
  </defs>
  <rect width="1400" height="360" fill="url(#sky)"/>
  <circle cx="1160" cy="74" r="44" fill="#fff4b8" opacity="0.85"/>
  <path d="M0 170 C130 115 252 112 378 154 C492 192 604 142 724 120 C848 98 960 124 1050 160 C1152 202 1268 164 1400 116 L1400 360 L0 360 Z" fill="#d9edd8"/>
  <path d="M0 218 C162 164 314 178 462 214 C638 258 784 196 942 184 C1098 174 1242 210 1400 170 L1400 360 L0 360 Z" fill="url(#hillA)"/>
  <path d="M0 270 C190 218 340 226 510 254 C700 286 865 260 1030 232 C1185 206 1292 222 1400 244 L1400 360 L0 360 Z" fill="url(#hillB)" opacity="0.92"/>
  <path d="M0 302 C170 286 326 286 480 304 C650 324 812 328 982 304 C1116 284 1268 282 1400 300 L1400 360 L0 360 Z" fill="#5aa052"/>
  <g filter="url(#shadow)">
    <g transform="translate(790 108)">
      <rect x="48" y="86" width="16" height="116" rx="8" fill="#55773a"/>
      <circle cx="55" cy="70" r="54" fill="#5da250"/>
      <circle cx="16" cy="98" r="36" fill="#79bd5d"/>
      <circle cx="100" cy="98" r="44" fill="#3d8843"/>
    </g>
    <g transform="translate(1030 116) scale(0.86)">
      <rect x="48" y="86" width="16" height="116" rx="8" fill="#55773a"/>
      <circle cx="55" cy="70" r="54" fill="#62a756"/>
      <circle cx="16" cy="98" r="36" fill="#82c162"/>
      <circle cx="100" cy="98" r="44" fill="#438b45"/>
    </g>
    <g transform="translate(1210 100) scale(1.08)">
      <rect x="48" y="86" width="16" height="116" rx="8" fill="#55773a"/>
      <circle cx="55" cy="70" r="54" fill="#5aa050"/>
      <circle cx="16" cy="98" r="36" fill="#76ba59"/>
      <circle cx="100" cy="98" r="44" fill="#347f42"/>
    </g>
  </g>
  <g fill="#2f7d40" opacity="0.34">
    <ellipse cx="634" cy="306" rx="72" ry="12"/>
    <ellipse cx="1120" cy="308" rx="86" ry="13"/>
    <ellipse cx="1310" cy="314" rx="70" ry="10"/>
  </g>
</svg>
